# xmcd
#
# Track frame offsets: 
#        150
#        11811
#        23612
#        44840
#        56939
#        71200
#        91890
#        105749
#        123643
#        135485
#        150489
#        163679
#
# Disc length: 2373 seconds
#
# Revision: 0
# Processed by: cddbd v1.5.2PL0 Copyright (c) Steve Scherf et al.
# Submitted via: ExactAudioCopy v1.0b1
#
DISCID=a609430c
DTITLE=The Country Gentlemen - Yesterday and Today Vol.3
DYEAR=1974
DGENRE=Bluegrass
TTITLE0=Train 45
TTITLE1=White Rose
TTITLE2=Pretty Polly
TTITLE3=Silence Or Tears
TTITLE4=Make Me A Pallet On The Floor
TTITLE5=Hank Snow Medley
TTITLE6=Galveston Flood
TTITLE7=MTA
TTITLE8=These Men Of God
TTITLE9=Sunrise
TTITLE10=They Call The Wind Maria
TTITLE11=Heaven
EXTD=
EXTT0=
EXTT1=
EXTT2=
EXTT3=
EXTT4=
EXTT5=
EXTT6=
EXTT7=
EXTT8=
EXTT9=
EXTT10=
EXTT11=
PLAYORDER=
